<svg xmlns="http://www.w3.org/2000/svg" width="17.333" height="21.167" viewBox="0 0 17.333 21.167">
  <g id="clipboard" transform="translate(-1.788 -0.917)">
    <path id="Vector" d="M11.5,0h1.917a1.917,1.917,0,0,1,1.917,1.917V15.333a1.917,1.917,0,0,1-1.917,1.917H1.917A1.917,1.917,0,0,1,0,15.333V1.917A1.917,1.917,0,0,1,1.917,0H3.833" transform="translate(2.788 3.833)" fill="none" stroke="#49299f" stroke-linecap="round" stroke-linejoin="round" stroke-width="2"/>
    <path id="Vector-2" data-name="Vector" d="M.958,0h5.75a.958.958,0,0,1,.958.958V2.875a.958.958,0,0,1-.958.958H.958A.958.958,0,0,1,0,2.875V.958A.958.958,0,0,1,.958,0Z" transform="translate(6.621 1.917)" fill="none" stroke="#49299f" stroke-linecap="round" stroke-linejoin="round" stroke-width="2"/>
  </g>
</svg>
