<svg xmlns="http://www.w3.org/2000/svg" width="15" height="14.25" viewBox="0 0 15 14.25">
  <g id="linkedin" transform="translate(-1.5 -1.5)">
    <path id="Vector" d="M4.5,0A4.5,4.5,0,0,1,9,4.5V9.75H6V4.5a1.5,1.5,0,0,0-3,0V9.75H0V4.5A4.5,4.5,0,0,1,4.5,0Z" transform="translate(7.5 6)" fill="#fff"/>
    <path id="Vector-2" data-name="Vector" d="M0,0H3V9H0Z" transform="translate(1.5 6.75)" fill="#fff"/>
    <path id="Vector-3" data-name="Vector" d="M3,1.5A1.5,1.5,0,1,1,1.5,0,1.5,1.5,0,0,1,3,1.5Z" transform="translate(1.5 1.5)" fill="#fff"/>
  </g>
</svg>
