<svg xmlns="http://www.w3.org/2000/svg" width="32" height="50.998" viewBox="0 0 32 50.998">
  <g id="Frame" transform="translate(0 0.001)">
    <g id="Group">
      <g id="Group-2" data-name="Group">
        <path id="Vector" d="M7.786,35.639C4.046,35.6.075,33.988.066,31.661L0,10.03C-.009,6.857,4.347,5.807,4.445,0H7.786Zm0,0c3.74-.036,7.711-1.651,7.72-3.978l.066-21.631C15.581,6.857,11.225,5.807,11.128,0H7.786V35.639Z" transform="translate(16.379 2.314)" fill="#23c0bb"/>
        <path id="Vector-2" data-name="Vector" d="M7.064,32.555c-3.39-.031-7-1.5-7.006-3.609L0,9.1C-.013,6.221,3.944,5.269,4.033,0H7.064Zm0,0c3.39-.031,7-1.5,7.006-3.609L14.128,9.1C14.137,6.221,10.184,5.269,10.1,0H7.064V32.555Z" transform="translate(17.101 3.667)" fill="#74e2d7"/>
        <g id="Group-3" data-name="Group">
          <path id="Vector-3" data-name="Vector" d="M5.943,0H3.421C3.346,5.269-.009,6.221,0,9.1L.049,28.946c.009,2.109,3.067,3.573,5.943,3.609V0Z" transform="translate(18.174 3.667)" fill="#bbf9f7"/>
          <path id="Vector-4" data-name="Vector" d="M2.57,0H0V32.555c2.876-.031,5.934-1.5,5.943-3.609L5.991,9.1C6,6.225,2.646,5.273,2.57,0Z" transform="translate(24.165 3.667)" fill="#bbf9f7"/>
        </g>
        <path id="Vector-5" data-name="Vector" d="M6.467.063c-4.068.4-6.935,2.643-6.4,5S4.331,9.012,8.4,8.607s6.935-2.643,6.4-5S10.54-.342,6.467.063Z" transform="translate(16.466 3.862)" fill="#ca4e02"/>
        <path id="Vector-6" data-name="Vector" d="M14.232.116v4.2h0c.129,2.1-2.517,3.938-6.186,4.187C4.145,8.766.574,7.142.06,4.877A2.389,2.389,0,0,1,0,4.267V0C.715,2.176,4.234,3.7,8.058,3.44,11.231,3.226,13.655,1.842,14.232.116Z" transform="translate(16.816 5.798)" fill="#b13305"/>
        <path id="Vector-7" data-name="Vector" d="M6.3.029C2.336.3-.46,2.388.063,4.693S4.22,8.649,8.186,8.377s6.758-2.358,6.24-4.663S10.269-.242,6.3.029Z" transform="translate(16.688 0.865)" fill="#5c1c07"/>
        <path id="Vector-8" data-name="Vector" d="M5,.023C1.853.236-.363,1.892.049,3.721s3.3,3.137,6.443,2.924,5.362-1.869,4.95-3.7S8.146-.191,5,.023Z" transform="translate(18.186 1.73)" fill="#892604"/>
        <path id="Vector-9" data-name="Vector" d="M2.951.022A8.084,8.084,0,0,0,0,.752v5.1a8.881,8.881,0,0,0,4.445.792A8.092,8.092,0,0,0,7.423,5.9V.827A8.879,8.879,0,0,0,2.951.022Z" transform="translate(20.234 1.731)" fill="#b13305"/>
        <path id="Vector-10" data-name="Vector" d="M6.973.032C2.586.33-.507,2.64.069,5.189s4.6,4.374,8.987,4.076,7.48-2.608,6.9-5.157S11.356-.266,6.973.032Z" transform="translate(15.92 -0.001)" fill="#ffdc80"/>
        <path id="Vector-11" data-name="Vector" d="M14.23,0l0,.9C14.035,4.063,3.616,7.235,0,2.332V.93C1.5,5.5,12.679,4.659,14.23,0Z" transform="translate(16.818 7.44)" fill="#ca4e02"/>
        <path id="Vector-12" data-name="Vector" d="M14.81,0l0,.939C14.62,4.063,4.835,7.2.625,3.137A1.948,1.948,0,0,1,0,1.7V.966C1.56,5.723,13.2,4.85,14.81,0Z" transform="translate(16.525 7.876)" fill="#892604"/>
        <path id="Vector-13" data-name="Vector" d="M15.892.129V4.815h0c.146,2.35-2.814,4.4-6.909,4.677C4.627,9.79.639,7.979.067,5.447A2.772,2.772,0,0,1,0,4.766V0C.8,2.43,4.725,4.134,9,3.845,12.546,3.6,15.25,2.056,15.892.129Z" transform="translate(15.984 5.233)" fill="#e88f00"/>
        <path id="Vector-14" data-name="Vector" d="M.226,0A.223.223,0,0,1,.448.222V4.5a.227.227,0,0,1-.222.227A.227.227,0,0,1,0,4.5V.222A.227.227,0,0,1,.226,0ZM15.08.111A.224.224,0,0,1,15.3.338V4.619a.222.222,0,1,1-.443,0V.338A.227.227,0,0,1,15.08.111Zm-.873.814a.223.223,0,0,1,.222.222V5.429a.224.224,0,1,1-.448,0V1.148A.226.226,0,0,1,14.207.926Zm-.873.623a.227.227,0,0,1,.226.222V6.052a.227.227,0,0,1-.226.227.224.224,0,0,1-.222-.227V1.771A.22.22,0,0,1,13.334,1.549Zm-.873.409a.223.223,0,0,1,.222.222V6.461a.227.227,0,0,1-.222.227.224.224,0,0,1-.222-.227V2.18A.22.22,0,0,1,12.461,1.958Zm-.873.338a.224.224,0,0,1,.222.227V6.8a.223.223,0,0,1-.222.222.227.227,0,0,1-.226-.222V2.523A.227.227,0,0,1,11.588,2.3Zm-.877.267a.227.227,0,0,1,.226.227V7.071a.224.224,0,0,1-.448,0V2.79A.224.224,0,0,1,10.711,2.563Zm-.873.147a.223.223,0,0,1,.222.222V7.213a.222.222,0,1,1-.443,0V2.932A.22.22,0,0,1,9.838,2.71Zm-.873.071A.223.223,0,0,1,9.187,3V7.284a.224.224,0,1,1-.448,0V3A.227.227,0,0,1,8.965,2.781Zm-.873.009a.227.227,0,0,1,.226.222V7.293a.224.224,0,0,1-.448,0V3.013A.22.22,0,0,1,8.092,2.79ZM7.219,2.8a.227.227,0,0,1,.226.227V7.307a.224.224,0,0,1-.448,0V3.026A.221.221,0,0,1,7.219,2.8Zm-.877-.053a.224.224,0,0,1,.222.227V7.253a.223.223,0,0,1-.222.222.227.227,0,0,1-.226-.222V2.973A.233.233,0,0,1,6.342,2.746ZM5.468,2.6a.227.227,0,0,1,.226.227V7.106a.224.224,0,0,1-.448,0V2.826A.224.224,0,0,1,5.468,2.6ZM4.6,2.407a.227.227,0,0,1,.226.222V6.911a.224.224,0,0,1-.448,0V2.63A.22.22,0,0,1,4.6,2.407Zm-.873-.182a.223.223,0,0,1,.222.222V6.728a.223.223,0,0,1-.222.222A.227.227,0,0,1,3.5,6.728V2.447A.224.224,0,0,1,3.722,2.225Zm-.873-.316a.223.223,0,0,1,.222.222V6.412a.224.224,0,1,1-.448,0V2.131A.227.227,0,0,1,2.849,1.909Zm-.877-.476A.227.227,0,0,1,2.2,1.66V5.941a.224.224,0,0,1-.448,0V1.66A.224.224,0,0,1,1.972,1.433ZM1.1.912a.224.224,0,0,1,.222.227V5.42a.222.222,0,1,1-.443,0V1.135A.22.22,0,0,1,1.1.912Z" transform="translate(16.304 6.475)" fill="#ffb700"/>
        <path id="Vector-15" data-name="Vector" d="M.222,0A.223.223,0,0,1,.443.222V4.5a.227.227,0,0,1-.222.227A.224.224,0,0,1,0,4.5V.222A.217.217,0,0,1,.222,0ZM15.076.107A.227.227,0,0,1,15.3.334V4.615a.224.224,0,0,1-.448,0V.334A.227.227,0,0,1,15.076.107ZM14.2.921a.224.224,0,0,1,.222.227V5.429a.222.222,0,1,1-.443,0V1.148A.224.224,0,0,1,14.2.921Zm-.873.623a.223.223,0,0,1,.222.222V6.047a.224.224,0,1,1-.448,0V1.767A.23.23,0,0,1,13.33,1.544Zm-.873.409a.227.227,0,0,1,.226.227V6.461a.224.224,0,0,1-.448,0V2.18A.221.221,0,0,1,12.457,1.953Zm-.873.343a.223.223,0,0,1,.222.222V6.8a.222.222,0,1,1-.443,0V2.519A.217.217,0,0,1,11.584,2.3Zm-.877.263a.223.223,0,0,1,.222.222V7.062a.223.223,0,0,1-.222.222.227.227,0,0,1-.226-.222V2.781A.233.233,0,0,1,10.707,2.559Zm-.873.147a.227.227,0,0,1,.226.222V7.209a.227.227,0,0,1-.226.227.224.224,0,0,1-.222-.227V2.928A.223.223,0,0,1,9.834,2.706Zm-.873.071A.224.224,0,0,1,9.182,3V7.284a.222.222,0,1,1-.443,0V3A.224.224,0,0,1,8.961,2.777Zm-.873.009a.223.223,0,0,1,.222.222V7.289a.224.224,0,1,1-.448,0V3.008A.227.227,0,0,1,8.088,2.786Zm-.873.009a.227.227,0,0,1,.226.222V7.3a.224.224,0,0,1-.448,0V3.017A.22.22,0,0,1,7.215,2.795Zm-.877-.049a.227.227,0,0,1,.226.227V7.253a.224.224,0,0,1-.448,0V2.973A.224.224,0,0,1,6.337,2.746Zm-.873-.151a.223.223,0,0,1,.222.222V7.1a.224.224,0,1,1-.448,0V2.817A.23.23,0,0,1,5.464,2.594Zm-.873-.187a.223.223,0,0,1,.222.222V6.911a.224.224,0,1,1-.448,0V2.63A.224.224,0,0,1,4.591,2.407ZM3.718,2.22a.227.227,0,0,1,.226.222V6.724a.227.227,0,0,1-.226.227A.224.224,0,0,1,3.5,6.724V2.443A.22.22,0,0,1,3.718,2.22Zm-.873-.311a.223.223,0,0,1,.222.222V6.412a.224.224,0,1,1-.448,0V2.131A.224.224,0,0,1,2.845,1.909Zm-.877-.476a.223.223,0,0,1,.222.222V5.936a.223.223,0,0,1-.222.222.227.227,0,0,1-.226-.222V1.655A.229.229,0,0,1,1.968,1.433ZM1.095.908a.227.227,0,0,1,.226.222V5.411a.224.224,0,0,1-.448,0V1.13A.223.223,0,0,1,1.095.908Z" transform="translate(16.432 6.532)" fill="#e88f00"/>
        <path id="Vector-16" data-name="Vector" d="M5.962.026C2.208.275-.433,2.189.059,4.307S3.99,7.938,7.739,7.689s6.39-2.163,5.9-4.281S9.711-.219,5.962.026Z" transform="translate(17.082 0.793)" fill="#ffb700"/>
        <path id="Vector-17" data-name="Vector" d="M5.962.028C2.208.282-.433,2.257.059,4.438L.077,4.5C-.03,2.484,2.514.731,6.037.491,9.751.237,13.163,1.768,13.7,3.913a2.481,2.481,0,0,0-.053-.4C13.15,1.332,9.711-.23,5.962.028Z" transform="translate(17.082 0.675)" fill="#e89207"/>
        <path id="Vector-18" data-name="Vector" d="M6.6.028C2.449.291-.476,2.324.064,4.567s4.352,3.849,8.5,3.587,7.073-2.3,6.528-4.539S10.744-.234,6.6.028Z" transform="translate(16.585 29.817)" fill="#23c0bb"/>
        <path id="Vector-19" data-name="Vector" d="M5.075.022C1.88.222-.367,1.789.05,3.515S3.4,6.479,6.591,6.274s5.442-1.767,5.025-3.493S8.266-.183,5.075.022Z" transform="translate(17.783 30.397)" fill="#96e5df"/>
        <g id="Group-4" data-name="Group">
          <g id="Group-5" data-name="Group">
            <path id="Vector-20" data-name="Vector" d="M2.51.007A2.821,2.821,0,0,1,3.756.341h.687V1.614a.967.967,0,0,1,0,.16v.058H4.434c0,.009,0,.022,0,.031C4.27,2.57,3.153,3.078,1.934,3,.871,2.926.082,2.428.007,1.832a.724.724,0,0,1,0-.2V.346H.738A3.566,3.566,0,0,1,2.51.007Z" transform="translate(18.291 31.885)" fill="#f2a100"/>
            <path id="Vector-21" data-name="Vector" d="M2.51.007A2.821,2.821,0,0,1,3.756.341h.687V1.614a.967.967,0,0,1,0,.16v.058H4.434c0,.009,0,.022,0,.031a.88.88,0,0,1-.124.289,3.111,3.111,0,0,1-2.389.725,2.731,2.731,0,0,1-1.773-.69.84.84,0,0,1-.137-.356.724.724,0,0,1,0-.2V.345H.738A3.616,3.616,0,0,1,2.51.007Z" transform="translate(18.291 31.885)" fill="#ffb700"/>
            <path id="Vector-22" data-name="Vector" d="M2.514.008C3.733.093,4.592.734,4.433,1.441S3.157,2.656,1.938,2.576-.14,1.851.019,1.143,1.3-.072,2.514.008Z" transform="translate(18.288 31.083)" fill="#ffeaa9"/>
          </g>
          <path id="Vector-23" data-name="Vector" d="M.748.061c.306.111.479.338.386.507S.717.786.411.671-.068.333.025.163.442-.05.748.061Z" transform="translate(21.024 31.529)" fill="#ffc"/>
        </g>
        <g id="Group-6" data-name="Group">
          <g id="Group-7" data-name="Group">
            <path id="Vector-24" data-name="Vector" d="M3.235,1.66a2.779,2.779,0,0,1,.576,1.157l.456.516-.948.841a.686.686,0,0,1-.12.107l-.044.04,0,0c-.009,0-.018.013-.027.018-.634.352-1.755-.156-2.5-1.126C-.026,2.363-.177,1.437.213.983A.678.678,0,0,1,.359.854L1.321,0l.487.552A3.624,3.624,0,0,1,3.235,1.66Z" transform="translate(20.81 31.834)" fill="#f2a100"/>
            <path id="Vector-25" data-name="Vector" d="M3.205,1.655a2.754,2.754,0,0,1,.576,1.157l.456.516-.948.841a.686.686,0,0,1-.12.107l-.044.04,0,0c-.009,0-.018.013-.027.018a.924.924,0,0,1-.3.1A3.129,3.129,0,0,1,.666,3.11a2.742,2.742,0,0,1-.66-1.789A.874.874,0,0,1,.178.983.8.8,0,0,1,.325.854L1.286,0l.487.552A3.554,3.554,0,0,1,3.205,1.655Z" transform="translate(20.84 31.839)" fill="#ffb700"/>
            <path id="Vector-26" data-name="Vector" d="M2.92,1.236c.744.97.838,2.042.2,2.39S1.369,3.469.625,2.5-.213.457.421.11,2.171.266,2.92,1.236Z" transform="translate(21.723 31.729)" fill="#ffeaa9"/>
          </g>
          <path id="Vector-27" data-name="Vector" d="M.741.477C.86.779.8,1.06.617,1.1S.178.935.063.632,0,.049.187,0,.621.174.741.477Z" transform="translate(24.173 33.543)" fill="#ffc"/>
        </g>
        <g id="Group-8" data-name="Group">
          <g id="Group-9" data-name="Group">
            <path id="Vector-28" data-name="Vector" d="M1.932.77A2.806,2.806,0,0,1,3.16.374L3.74,0l.687,1.068a.68.68,0,0,1,.084.133l.027.049-.009,0c0,.009.009.022.013.031C4.79,1.967,4.126,3,3.053,3.6c-.931.516-1.861.53-2.251.071A.874.874,0,0,1,.7,3.5L0,2.416l.616-.4A3.715,3.715,0,0,1,1.932.77Z" transform="translate(26.274 30.789)" fill="#f2a100"/>
            <path id="Vector-29" data-name="Vector" d="M1.928.77a2.808,2.808,0,0,1,1.223-.4L3.731,0l.687,1.068A.68.68,0,0,1,4.5,1.2l.031.049-.009,0c0,.009.009.022.013.031a.92.92,0,0,1,.053.311A3.135,3.135,0,0,1,2.974,3.506a2.739,2.739,0,0,1-1.866.383A.826.826,0,0,1,.8,3.667.874.874,0,0,1,.7,3.5L0,2.416l.616-.4A3.7,3.7,0,0,1,1.928.77Z" transform="translate(26.279 30.789)" fill="#ffb700"/>
            <path id="Vector-30" data-name="Vector" d="M1.539.4C2.607-.191,3.675-.12,3.923.561S3.507,2.279,2.434,2.871.3,3.391.05,2.711.471,1,1.539.4Z" transform="translate(26.237 30.485)" fill="#ffeaa9"/>
          </g>
          <path id="Vector-31" data-name="Vector" d="M.55.023c.319-.071.585.027.6.218S.913.651.6.722.014.7,0,.5.235.094.55.023Z" transform="translate(28.308 30.757)" fill="#ffc"/>
        </g>
        <path id="Vector-32" data-name="Vector" d="M2.867.842V18.833c0,1.6-2.867,3.453-2.867,1.424V1.4C0,.335,2.867-.835,2.867.842Z" transform="translate(27.258 14.794)" fill="#fff" opacity="0.49"/>
        <path id="Vector-33" data-name="Vector" d="M.021,1.144c-.137.632.4,1.139,1.2,1.135a1.738,1.738,0,0,0,1.7-1.144C3.061.5,2.525,0,1.723,0A1.732,1.732,0,0,0,.021,1.144Z" transform="translate(27.201 14.551)" fill="#fff"/>
        <path id="Vector-34" data-name="Vector" d="M15.643,0H15.7l-.062,10.751C15.6,16.465.075,16.54.08,10.751.08,10.724,0,1.126,0,.027.9,2.345,4.7,3.956,8.832,3.671,12.337,3.431,15.014,1.9,15.643,0Z" transform="translate(16.304 17.225)" fill="#666"/>
        <path id="Vector-35" data-name="Vector" d="M15.648,0H15.7l-.062,10.466C14.726,15.521.984,15.588.08,10.484.066,8.935,0,1.019,0,.022.9,2.341,4.7,3.951,8.832,3.667,12.342,3.431,15.018,1.9,15.648,0Z" transform="translate(16.299 17.225)" fill="#fff"/>
        <path id="Vector-36" data-name="Vector" d="M15.67,4.374C14.287,9.109,1.347,9.162.031,4.361.018,2.323,0,.476,0,.027.9,2.345,4.7,3.956,8.832,3.671,12.337,3.431,15.014,1.9,15.643,0H15.7Z" transform="translate(16.304 17.217)" fill="#66f"/>
      </g>
      <path id="Vector-37" data-name="Vector" d="M13.934,4.207V23.142H13.92c-.222,1.882-2.7,3.458-6.049,3.684C4.056,27.084.555,25.5.059,23.28c-.009-.044-.018-.093-.027-.138H0V4.061c-.133-5.26,12.767-5.4,13.875-.472A2.682,2.682,0,0,1,13.934,4.207Z" transform="translate(6.589 16.969)" fill="#5c1c07"/>
      <path id="Vector-38" data-name="Vector" d="M12.64,3.818v16.7h-.013c-.2,1.709-2.451,3.137-5.486,3.342C3.679,24.1.506,22.654.05,20.643a1.224,1.224,0,0,1-.022-.125H0V3.684c-.12-4.77,11.58-4.9,12.59-.427A2.716,2.716,0,0,1,12.64,3.818Z" transform="translate(7.236 18.454)" fill="#ca4e02"/>
      <path id="Vector-39" data-name="Vector" d="M10.415,3.818v16.7h-.009c-.164,1.709-2.016,3.137-4.52,3.342C3.032,24.1.417,22.654.045,20.643c-.009-.04-.013-.085-.022-.125H0V3.684c-.1-4.77,9.541-4.9,10.37-.427A2.706,2.706,0,0,1,10.415,3.818Z" transform="translate(8.348 18.454)" fill="#eda564"/>
      <path id="Vector-40" data-name="Vector" d="M0,0H8.248V.988C8.323,2.207,6.79,3.271,4.663,3.413,2.4,3.569.333,2.625.036,1.313A1.373,1.373,0,0,1,0,.961Z" transform="translate(9.429 18.894)" fill="#892604"/>
      <path id="Vector-41" data-name="Vector" d="M4.153.019C1.539.2-.3,1.572.041,3.09S2.779,5.7,5.394,5.519s4.454-1.553,4.112-3.07S6.763-.159,4.153.019Z" transform="translate(8.782 16.049)" fill="#ca4e02"/>
      <path id="Vector-42" data-name="Vector" d="M4.3.041C1.6.308-.312,1.8.042,3.365S2.879,5.986,5.582,5.719,10.191,3.962,9.836,2.4,7-.226,4.3.041Z" transform="translate(8.59 14.029)" fill="#ca4e02"/>
      <path id="Vector-43" data-name="Vector" d="M9.458.08V2.87c.084,1.4-1.675,2.617-4.112,2.781-2.588.178-4.963-.9-5.3-2.407a1.59,1.59,0,0,1-.04-.4V0C.475,1.446,2.815,2.461,5.354,2.287,7.468,2.149,9.077,1.228,9.458.08Z" transform="translate(8.822 15.312)" fill="#b13305"/>
      <path id="Vector-44" data-name="Vector" d="M9.457,0V.6C9.333,2.7,2.406,4.81,0,1.549V.614C1,3.653,8.429,3.1,9.457,0Z" transform="translate(8.823 16.407)" fill="#ca4e02"/>
      <path id="Vector-45" data-name="Vector" d="M9.838,0V.623C9.714,2.7,3.213,4.779.412,2.083A1.271,1.271,0,0,1,0,1.126V.641C1.033,3.8,8.766,3.226,9.838,0Z" transform="translate(8.637 16.696)" fill="#892604"/>
      <path id="Vector-46" data-name="Vector" d="M4.189.019C1.553.2-.3,1.585.041,3.116s2.761,2.63,5.4,2.452S9.933,4,9.587,2.466,6.826-.159,4.189.019Z" transform="translate(8.737 12.036)" fill="#5c1c07"/>
      <path id="Vector-47" data-name="Vector" d="M3.326.015C1.234.158-.242,1.257.033,2.476S2.227,4.563,4.318,4.421,7.881,3.179,7.611,1.96,5.413-.127,3.326.015Z" transform="translate(9.734 12.614)" fill="#ca4e02"/>
      <path id="Vector-48" data-name="Vector" d="M4.963.023C1.839.237-.359,1.879.049,3.694S3.324,6.809,6.443,6.6s5.322-1.856,4.915-3.671S8.087-.191,4.963.023Z" transform="translate(7.848 36.484)" fill="#5c1c07"/>
      <path id="Vector-49" data-name="Vector" d="M4.158.019C1.543.192-.3,1.536.041,3.018S2.779,5.563,5.4,5.39s4.458-1.517,4.112-3S6.772-.155,4.158.019Z" transform="translate(7.847 36.902)" fill="#ca4e02"/>
      <path id="Vector-50" data-name="Vector" d="M3.395,1V15.778c0,1.9-3.395,4.094-3.395,1.687V1.658C0,.4,3.395-.989,3.395,1Z" transform="translate(15.794 22.282)" fill="#fff" opacity="0.49"/>
      <path id="Vector-51" data-name="Vector" d="M.026,1.353C-.138,2.1.5,2.7,1.448,2.7A2.057,2.057,0,0,0,3.465,1.344C3.629.6,2.99,0,2.042,0A2.048,2.048,0,0,0,.026,1.353Z" transform="translate(15.724 21.996)" fill="#fff"/>
      <path id="Vector-52" data-name="Vector" d="M.011.852c-.071.338.2.516.607.4a1.274,1.274,0,0,0,.86-.819c.071-.338-.2-.516-.607-.4A1.265,1.265,0,0,0,.011.852Z" transform="translate(10.234 13.37)" fill="#fff"/>
      <g id="Group-10" data-name="Group">
        <g id="Group-11" data-name="Group">
          <path id="Vector-53" data-name="Vector" d="M3.042.264,9.485,3.918A2.045,2.045,0,0,1,7.478,7.482L1.034,3.829A2.045,2.045,0,0,1,3.042.264Z" transform="translate(19.121 38.583)" fill="#e88f00"/>
          <path id="Vector-54" data-name="Vector" d="M3.042.264,9.486,3.918a2.014,2.014,0,0,1,.873.983,2.04,2.04,0,0,1-3.04,1.873L.875,3.121A2.056,2.056,0,0,1,0,2.138,2.038,2.038,0,0,1,3.042.264Z" transform="translate(19.12 38.583)" fill="#ffb700"/>
          <path id="Vector-55" data-name="Vector" d="M2.309,0l3.2,1.816A2.045,2.045,0,0,1,3.505,5.38L.3,3.564A2.4,2.4,0,0,1,2.309,0Z" transform="translate(23.093 40.681)" fill="#901e78"/>
          <path id="Vector-56" data-name="Vector" d="M2.307,0l3.2,1.816a2.014,2.014,0,0,1,.873.983,2.04,2.04,0,0,1-3.04,1.873L.034,2.795A2.4,2.4,0,0,1,2.307,0Z" transform="translate(23.094 40.681)" fill="#e6007e"/>
        </g>
        <path id="Vector-57" data-name="Vector" d="M.942.09,7.173,3.641c.882.5.244,1.593-.62,1.1L.322,1.189A.631.631,0,0,1,.942.09Z" transform="translate(20.272 39.118)" fill="#fff" opacity="0.49"/>
      </g>
      <g id="Group-12" data-name="Group">
        <g id="Group-13" data-name="Group">
          <path id="Vector-58" data-name="Vector" d="M7.478.262,1.034,3.916A2.045,2.045,0,0,0,3.042,7.48L9.485,3.827A2.045,2.045,0,0,0,7.478.262Z" transform="translate(15.819 43.253)" fill="#e88f00"/>
          <path id="Vector-59" data-name="Vector" d="M7.319.262.875,3.916A2.014,2.014,0,0,0,0,4.9a2.04,2.04,0,0,0,3.04,1.873L9.486,3.119a2.056,2.056,0,0,0,.873-.983A2.038,2.038,0,0,0,7.319.262Z" transform="translate(15.978 43.253)" fill="#ffb700"/>
          <path id="Vector-60" data-name="Vector" d="M4.238,0l-3.2,1.816A2.045,2.045,0,0,0,3.042,5.38l3.2-1.816A2.4,2.4,0,0,0,4.238,0Z" transform="translate(15.819 45.353)" fill="#901e78"/>
          <path id="Vector-61" data-name="Vector" d="M4.079,0,.875,1.816A2.014,2.014,0,0,0,0,2.8a2.04,2.04,0,0,0,3.04,1.873l3.31-1.878A2.4,2.4,0,0,0,4.079,0Z" transform="translate(15.978 45.353)" fill="#e6007e"/>
        </g>
        <path id="Vector-62" data-name="Vector" d="M6.654.09.423,3.641c-.882.5-.244,1.593.62,1.1L7.274,1.189A.631.631,0,0,0,6.654.09Z" transform="translate(17.586 43.79)" fill="#fff" opacity="0.49"/>
      </g>
      <g id="Group-14" data-name="Group">
        <g id="Group-15" data-name="Group">
          <path id="Vector-63" data-name="Vector" d="M3.594.719,8.38,6.383A2.044,2.044,0,1,1,5.269,9.036L.483,3.371A2.061,2.061,0,0,1,.718.483,2.044,2.044,0,0,1,3.594.719Z" transform="translate(0 37.733)" fill="#e88f00"/>
          <path id="Vector-64" data-name="Vector" d="M3.5.718,8.283,6.383a2.017,2.017,0,0,1,.479,1.224,2.034,2.034,0,0,1-3.5.7L.479,2.649A2.044,2.044,0,0,1,0,1.426,2.037,2.037,0,0,1,3.5.718Z" transform="translate(0.097 37.733)" fill="#ffb700"/>
          <path id="Vector-65" data-name="Vector" d="M3.138.118l2.38,2.817A2.044,2.044,0,1,1,2.407,5.587L.027,2.77A2.42,2.42,0,0,1,.842.568,2.4,2.4,0,0,1,3.138.118Z" transform="translate(2.862 41.181)" fill="#901e78"/>
          <path id="Vector-66" data-name="Vector" d="M3.1.118l2.38,2.817a2.017,2.017,0,0,1,.479,1.224,2.034,2.034,0,0,1-3.5.7L0,1.952A2.385,2.385,0,0,1,3.1.118Z" transform="translate(2.903 41.181)" fill="#e6007e"/>
        </g>
        <path id="Vector-67" data-name="Vector" d="M1.119.23,5.746,5.721c.651.774-.319,1.58-.962.819L.158,1.049A.632.632,0,0,1,1.119.23Z" transform="translate(1.46 38.235)" fill="#fff" opacity="0.49"/>
      </g>
    </g>
  </g>
</svg>
