<svg xmlns="http://www.w3.org/2000/svg" width="38.97" height="43.083" viewBox="0 0 38.97 43.083">
  <g id="search-for-symptoms" transform="translate(-154.848 -117.156)">
    <path id="Path_1" data-name="Path 1" d="M599.366,388.716a.546.546,0,0,0-.737-.229l-2.946,1.55a.546.546,0,0,0-.132.869l.918.918-2.363,1.1a.546.546,0,0,0,.459.99l3.072-1.425a.546.546,0,0,0,.156-.881l-.946-.946,2.291-1.205A.546.546,0,0,0,599.366,388.716Zm9.063,13.943-3.179-.987a.545.545,0,0,0-.707.521v1.3l-2.446-.9a.546.546,0,1,0-.375,1.025l3.179,1.164a.546.546,0,0,0,.733-.512v-1.338l2.472.768a.546.546,0,1,0,.324-1.042Z" transform="translate(-414.995 -256.469)" fill="#eb6b69"/>
    <path id="Path_2" data-name="Path 2" d="M183.564,478.8H175.6a8.736,8.736,0,0,0-8.733,8.733V497.88H192.3V487.537A8.733,8.733,0,0,0,183.564,478.8Z" transform="translate(-11.36 -341.918)" fill="#e8e6f4"/>
    <path id="Path_3" data-name="Path 3" d="M234.669,129.152a9.535,9.535,0,1,0,9.539,9.539A9.478,9.478,0,0,0,234.669,129.152Z" transform="translate(-66.45 -11.341)" fill="#e8e6f4"/>
    <path id="Path_4" data-name="Path 4" d="M220.289,148.228h-7.967a8.673,8.673,0,0,0-5.021,1.589,8.677,8.677,0,0,0-1.592,5.024v10.343h23.314v-8.224A8.732,8.732,0,0,0,220.289,148.228ZM216.3,129.152a9.478,9.478,0,0,0-5.6,1.819,9.535,9.535,0,0,0,13.318,13.318,9.535,9.535,0,0,0-7.72-15.137Z" transform="translate(-48.085 -11.341)" fill="#ffddbe"/>
    <path id="Path_5" data-name="Path 5" d="M244.465,129.156a9.541,9.541,0,0,0-8.973,6.3l.107.152a8.175,8.175,0,0,0,6.481-3.421,9.49,9.49,0,0,0,7.313,3.421h4.1A9.54,9.54,0,0,0,244.465,129.156Z" transform="translate(-76.244 -11.345)" fill="#e8e6f4"/>
    <path id="Path_6" data-name="Path 6" d="M269.676,129.152a9.476,9.476,0,0,0-5.976,2.11A9.5,9.5,0,0,0,262.16,134l.108.151a7.833,7.833,0,0,0,4.89-1.819c.052-.041.1-.084.151-.128a8.426,8.426,0,0,0,1.4-1.52l-.006-.012a9.507,9.507,0,0,0,7.359,3.479h2A9.524,9.524,0,0,0,269.676,129.152Zm9.145,32.51,2.252-2.252,8.992,8.992-2.252,2.252Z" transform="translate(-101.457 -11.341)" fill="#8479b9"/>
    <path id="Path_7" data-name="Path 7" d="M407.053,508.364a7.97,7.97,0,1,0,7.971,7.97A7.914,7.914,0,0,0,407.053,508.364Z" transform="translate(-230.907 -369.865)" fill="#e8e6f4"/>
    <path id="Path_8" data-name="Path 8" d="M442.363,508.364a7.97,7.97,0,1,0,7.97,7.97A7.914,7.914,0,0,0,442.363,508.364Z" transform="translate(-266.218 -369.865)" fill="#94d3cc"/>
    <path id="Path_9" data-name="Path 9" d="M504.233,613.5m-2.365,0a2.365,2.365,0,1,0,2.365-2.365A2.365,2.365,0,0,0,501.868,613.5Z" transform="translate(-328.088 -467.026)" fill="#eb6b69"/>
    <path id="Path_10" data-name="Path 10" d="M201.374,525.172a6.476,6.476,0,0,0-2.906,2.576l1.121.677a5.172,5.172,0,0,1,2.321-2.058Zm-3.834,5.913h1.309v7.432H197.54Z" transform="translate(-40.363 -385.756)" fill="#44294f"/>
    <path id="Path_11" data-name="Path 11" d="M326.7,289.008m-.864,0a.864.864,0,1,0,.864-.864A.864.864,0,0,0,325.84,289.008Z" transform="translate(-161.663 -161.659)" fill="#44294f"/>
    <path id="Path_12" data-name="Path 12" d="M443.256,289.008m-.864,0a.864.864,0,1,0,.864-.864A.864.864,0,0,0,442.392,289.008Z" transform="translate(-271.857 -161.659)" fill="#44294f"/>
    <path id="Path_13" data-name="Path 13" d="M351.829,354.26a3.219,3.219,0,0,0-2.777,1.6l.755.438a2.335,2.335,0,0,1,4.043,0l.755-.438A3.219,3.219,0,0,0,351.829,354.26Z" transform="translate(-183.609 -224.168)" fill="#44294f"/>
    <path id="Path_14" data-name="Path 14" d="M183.479,151.006a8.619,8.619,0,0,0-5.836-13.028,9.328,9.328,0,0,0-4.515-1.7,10.193,10.193,0,1,0-9.817,0,9.4,9.4,0,0,0-8.463,9.342v11h26.744v-1.144l4.765,4.765,3.178-3.178Zm-15.259-32.54a8.893,8.893,0,0,1,8.053,5.141h-3.125a8.869,8.869,0,0,1-7.814-4.657A8.841,8.841,0,0,1,168.22,118.465Zm-4.093,1a10.216,10.216,0,0,0,.868,1.373,7.166,7.166,0,0,1-4.805,2.715A8.939,8.939,0,0,1,164.127,119.469Zm-4.79,7.88a8.857,8.857,0,0,1,.344-2.443,8.474,8.474,0,0,0,6.18-3.052,10.177,10.177,0,0,0,7.287,3.062h3.613a8.883,8.883,0,1,1-17.425,2.434Zm14.587,27.959H162.516V145.62h-1.309v9.688h-5.049V145.62a8.088,8.088,0,0,1,8.079-8.079H172.2a8.041,8.041,0,0,1,2.549.417,8.626,8.626,0,0,0-.83,16.848Zm6.359,0h-5.049v-.259a8.674,8.674,0,0,0,.912.048,8.571,8.571,0,0,0,4.055-1.015l.082.082Zm-4.138-1.52a7.317,7.317,0,1,1,7.317-7.317A7.325,7.325,0,0,1,176.145,153.788Zm5.447-.166v-.468a8.7,8.7,0,0,0,1.1-1.08l1.385,1.385-1.326,1.326-1.163-1.163Zm2.088,2.088,1.326-1.326,2.677,2.677-1.326,1.326Z" transform="translate(0)" fill="#44294f"/>
    <path id="Path_15" data-name="Path 15" d="M448.115,551.776a5.6,5.6,0,1,0,5.6,5.6A5.61,5.61,0,0,0,448.115,551.776Zm0,9.9a4.294,4.294,0,1,1,4.294-4.294A4.3,4.3,0,0,1,448.115,561.673Z" transform="translate(-271.97 -410.909)" fill="#44294f"/>
  </g>
</svg>
