<svg xmlns="http://www.w3.org/2000/svg" width="24.143" height="19.683" viewBox="0 0 24.143 19.683">
  <g id="twitter" transform="translate(0 0)">
    <path id="Vector" d="M24.143.011A11.962,11.962,0,0,1,20.7,1.69a4.916,4.916,0,0,0-8.626,3.292v1.1A11.7,11.7,0,0,1,6.509,4.835,11.7,11.7,0,0,1,2.195,1.108s-4.39,9.877,5.487,14.267A12.774,12.774,0,0,1,0,17.57c7.941,4.412,17.3,1.729,20.777-6.317a16.169,16.169,0,0,0,1.172-6.3,4.938,4.938,0,0,0-.088-.911A8.472,8.472,0,0,0,24.143.011Z" transform="translate(0 0)" fill="#3e1e96"/>
  </g>
</svg>
