<?xml version="1.0" encoding="utf-8"?>
<!-- Svg Vector Icons : http://www.onlinewebfonts.com/icon -->
<!DOCTYPE svg PUBLIC "-//W3C//DTD SVG 1.1//EN" "http://www.w3.org/Graphics/SVG/1.1/DTD/svg11.dtd">
<svg version="1.1" xmlns="http://www.w3.org/2000/svg" xmlns:xlink="http://www.w3.org/1999/xlink" x="0px" y="0px" viewBox="0 0 1000 1000" enable-background="new 0 0 1000 1000" xml:space="preserve">
<metadata> Svg Vector Icons : http://www.onlinewebfonts.com/icon </metadata>
<g><path d="M779.2,120.4l0.6,69.6H875l1.1,336.3c0,0,53.3,18.5,68.6,39.5V190c0,0-0.7-64.2-62.1-69.6H779.2z"/><path d="M535,120.4h139.4V190H535V120.4z"/><path d="M289.8,120.4h139.4V190H289.8V120.4z"/><path d="M184.1,190H79.4l0.2,122.9l0.6,463.3l504.6,0.4c0,0,1.8,33.7,24.6,69.1l-526.6,0.2c0,0-72.8,0.2-72.8-73.5l0.3-566.9l0-17.2c0,0,0.6-60.8,66.1-67.7h107.5L184.1,190z"/><path d="M875.4,314.3v33.1l-795.8-0.2l0-34.4l795.8,0.6L875.4,314.3z"/><path d="M219.4,209.7c0,0-21.8,12.4-15.9,36.6c0,0,3.8,21.5,30.4,26.3c0,0,35.4,1.4,37.9-28.9c0,0,3-24.8-16.9-34.1l-0.3-117.9c0,0-3.1-15.1-17.7-15.4c0,0-15.4,1.4-17,15.7L219.4,209.7z"/><path d="M464.3,209.7c0,0-24.4,13.1-14.9,39.6c0,0,5,18.1,30.8,23.7c0,0,30,0.3,35.9-26.2c0,0,5.5-26-16.3-37.1l-0.3-117.9c0,0-4.1-14.8-17.7-15.4c0,0-13.8,0.3-17.1,15.7L464.3,209.7z"/><path d="M709.6,209.7c0,0-19.2,11.1-17.1,30.2c0,0,0.1,26.4,33,33c0,0,33.1,1.1,36.3-29.9c0,0,2.4-24.8-16.7-33.3l-0.3-117.9c0,0-4.1-15.1-17.7-15.4c0,0-14.2,0.6-17.1,15.7L709.6,209.7z"/><path d="M342.6,417c0,0,34.5,0.9,35.4,35.4c0,0,0.5,32.4-35.4,35.4c0,0-30.7-0.3-35.3-32.2C307.4,455.6,302.9,422.6,342.6,417z"/><path d="M482.6,417c0,0,34.5,0.9,35.4,35.4c0,0,0.4,32.4-35.4,35.4c0,0-30.7-0.3-35.3-32.2C447.3,455.6,442.9,422.6,482.6,417z"/><path d="M621.5,417c0,0,34.5,0.9,35.4,35.4c0,0,0.4,32.4-35.4,35.4c0,0-30.7-0.3-35.3-32.2C586.2,455.6,581.7,422.6,621.5,417z"/><path d="M762.5,417c0,0,34.5,0.9,35.4,35.4c0,0,0.4,32.4-35.4,35.4c0,0-30.7-0.3-35.3-32.2C727.3,455.6,722.8,422.6,762.5,417z"/><path d="M622.6,531.2c0,0,34.5,0.9,35.4,35.4c0,0,0.4,32.4-35.4,35.4c0,0-30.7-0.3-35.3-32.2C587.3,569.8,582.9,536.8,622.6,531.2z"/><path d="M481.5,531.2c0,0,34.5,0.9,35.4,35.4c0,0,0.4,32.4-35.4,35.4c0,0-30.7-0.3-35.3-32.2C446.2,569.8,441.8,536.8,481.5,531.2z"/><path d="M342.6,531.2c0,0,34.5,0.9,35.4,35.4c0,0,0.5,32.4-35.4,35.4c0,0-30.7-0.3-35.3-32.2C307.4,569.8,302.9,536.8,342.6,531.2z"/><path d="M201.6,530.1c0,0,34.5,0.9,35.4,35.4c0,0,0.4,32.4-35.4,35.4c0,0-30.7-0.3-35.3-32.2C166.3,568.7,161.8,535.7,201.6,530.1z"/><path d="M201.6,644.3c0,0,34.5,0.9,35.4,35.4c0,0,0.4,32.4-35.4,35.4c0,0-30.7-0.3-35.3-32.2C166.3,682.9,161.8,649.9,201.6,644.3z"/><path d="M342.6,644.3c0,0,34.5,0.9,35.4,35.4c0,0,0.5,32.4-35.4,35.4c0,0-30.7-0.3-35.3-32.2C307.4,682.9,302.9,649.9,342.6,644.3z"/><path d="M481.5,644.3c0,0,34.5,0.9,35.4,35.4c0,0,0.4,32.4-35.4,35.4c0,0-30.7-0.3-35.3-32.2C446.2,682.9,441.8,649.9,481.5,644.3z"/><path d="M798,585.7c0,0,143.9-6.2,158.1,147.1c0,0,1.6,155.8-158.1,156.2c0,0-144-5.9-147.2-151.7h-35c0,0-6.3,168.8,181.6,186.2c0,0,190.1,4.1,192.6-193.1c0,0-6-173.2-192-180.4V585.7z"/><path d="M798,585.7c0,0-136.3,0.6-147.2,151.7h-35c0,0,1-179,182.2-187.2V585.7z"/><path d="M784.3,718.6c0,0,20.1-19.7,43.1,5h84c0,0,18.4,3.8,18.5,20.2c0,0,2.7,18.4-17.9,23h-95.2c0,0-34.2,18.4-43.1-20.2l-81.2-45.4c0,0-5.1-9.4,0-17.3c0,0,5.4-11.9,19.6-4.3L784.3,718.6z"/></g>
</svg>