<svg xmlns="http://www.w3.org/2000/svg" width="24.628" height="24.672" viewBox="0 0 24.628 24.672">
  <path id="Vector" d="M14.016,4.333A5.417,5.417,0,0,1,18.3,8.612Zm0-4.333a9.75,9.75,0,0,1,8.613,8.6Zm7.529,17.247V20.5a2.167,2.167,0,0,1-2.362,2.167,21.439,21.439,0,0,1-9.349-3.326,21.125,21.125,0,0,1-6.5-6.5A21.439,21.439,0,0,1,.009,3.445,2.167,2.167,0,0,1,2.165,1.083h3.25A2.167,2.167,0,0,1,7.581,2.947,13.91,13.91,0,0,0,8.34,5.991a2.167,2.167,0,0,1-.488,2.286L6.476,9.652a17.333,17.333,0,0,0,6.5,6.5l1.376-1.376a2.167,2.167,0,0,1,2.286-.488,13.91,13.91,0,0,0,3.044.758,2.167,2.167,0,0,1,1.863,2.2Z" transform="translate(0.999 1)" fill="none" stroke="#fff" stroke-linecap="round" stroke-linejoin="round" stroke-width="2"/>
</svg>
