<svg xmlns="http://www.w3.org/2000/svg" width="16.667" height="16" viewBox="0 0 16.667 16">
  <g id="shopping-cart" transform="translate(0.333 0.333)">
    <path id="Vector" d="M1.333.667A.667.667,0,1,1,.667,0,.667.667,0,0,1,1.333.667Z" transform="translate(5.333 13.333)" fill="none" stroke="#fff" stroke-linecap="round" stroke-linejoin="round" stroke-width="2"/>
    <path id="Vector-2" data-name="Vector" d="M1.333.667A.667.667,0,1,1,.667,0,.667.667,0,0,1,1.333.667Z" transform="translate(12.667 13.333)" fill="none" stroke="#fff" stroke-linecap="round" stroke-linejoin="round" stroke-width="2"/>
    <path id="Vector-3" data-name="Vector" d="M0,0H2.667L4.453,8.927A1.333,1.333,0,0,0,5.787,10h6.48A1.333,1.333,0,0,0,13.6,8.927l1.067-5.593H3.333" transform="translate(0.667 0.667)" fill="none" stroke="#fff" stroke-linecap="round" stroke-linejoin="round" stroke-width="2"/>
  </g>
</svg>
